<svg width="41" height="41" viewBox="0 0 41 41" fill="none" xmlns="http://www.w3.org/2000/svg">
<path d="M34.5182 6.23396C42.3287 14.0444 42.3287 26.7077 34.5182 34.5182C26.7078 42.3287 14.0444 42.3287 6.23396 34.5182C-1.57652 26.7077 -1.57652 14.0444 6.23396 6.23396C14.0444 -1.57652 26.7078 -1.57652 34.5182 6.23396Z" fill="#1A3763" fill-opacity="0.8"/>
<path fill-rule="evenodd" clip-rule="evenodd" d="M10 13V10H12V13H15V15H12V18H10V15H7V13H10ZM27 15H17V13H27C29.7615 13 32 15.2385 32 18V25C32 27.7615 29.7615 30 27 30H15C12.2385 30 10 27.7615 10 25V20H12V25C12 26.6569 13.3431 28 15 28H27C28.6569 28 30 26.6569 30 25V18C30 16.3431 28.6569 15 27 15ZM15 22C14.4478 22 14 22.4478 14 23V25C14 25.5522 14.4478 26 15 26H19C19.5522 26 20 25.5522 20 25V23C20 22.4478 19.5522 22 19 22H15ZM23 22C22.4478 22 22 22.4478 22 23V25C22 25.5522 22.4478 26 23 26H27C27.5522 26 28 25.5522 28 25V23C28 22.4478 27.5522 22 27 22H23Z" fill="white"/>
</svg>
