<svg width="28" height="24" viewBox="0 0 28 24" fill="none" xmlns="http://www.w3.org/2000/svg">
<path d="M27.5982 6.15141V21.8668C27.5982 22.2616 27.4409 22.6403 27.1608 22.9195C26.8807 23.1987 26.5008 23.3556 26.1047 23.3556H1.87676C1.48072 23.3554 1.10095 23.1985 0.820904 22.9193C0.540861 22.6402 0.383463 22.2616 0.383301 21.8668L0.383301 4.99299C0.383301 4.59814 0.540647 4.21946 0.820725 3.94025C1.1008 3.66105 1.48067 3.5042 1.87676 3.5042H13.8251C14.2211 3.50403 14.6009 3.34713 14.8809 3.06796C15.161 2.78879 15.3183 2.41021 15.3185 2.0154C15.3184 1.81987 15.357 1.62624 15.432 1.44557C15.5071 1.26491 15.6171 1.10075 15.7558 0.96249C15.8945 0.824226 16.0591 0.714566 16.2404 0.639776C16.4216 0.564985 16.6158 0.526531 16.812 0.526611H26.1054C26.3015 0.526531 26.4957 0.564985 26.677 0.639776C26.8582 0.714566 27.0229 0.824226 27.1616 0.96249C27.3003 1.10075 27.4103 1.26491 27.4853 1.44557C27.5603 1.62624 27.5989 1.81987 27.5988 2.0154V6.15141H27.5982Z" fill="#9BAAC0"/>
</svg>
