<svg width="40" height="40" viewBox="0 0 40 40" fill="none" xmlns="http://www.w3.org/2000/svg">
<path d="M20 0C31.0457 0 40 8.9543 40 20C40 31.0457 31.0457 40 20 40C8.9543 40 0 31.0457 0 20C0 8.9543 8.9543 0 20 0Z" fill="#1A3763" fill-opacity="0.8"/>
<path fill-rule="evenodd" clip-rule="evenodd" d="M32 20C32 25.2448 26.9277 30 20 30C13.0723 30 8 25.2448 8 20C8 14.7552 13.0723 10 20 10C26.9277 10 32 14.7552 32 20ZM34 20C34 26.6274 27.7319 32 20 32C12.2681 32 6 26.6274 6 20C6 13.3726 12.2681 8 20 8C27.7319 8 34 13.3726 34 20ZM17 12.9V15.2999C17 15.7418 17.4478 16.1 18 16.1H22C22.5522 16.1 23 15.7418 23 15.2999V12.9C23 12.4581 22.5522 12.1 22 12.1H18C17.4478 12.1 17 12.4581 17 12.9ZM18 18C17.4478 18 17 18.3582 17 18.7999V21.2C17 21.6417 17.4478 22 18 22H22C22.5522 22 23 21.6417 23 21.2V18.7999C23 18.3582 22.5522 18 22 18H18ZM17 27.2V24.7999C17 24.3582 17.4478 24 18 24H22C22.5522 24 23 24.3582 23 24.7999V27.2C23 27.6417 22.5522 28 22 28H18C17.4478 28 17 27.6417 17 27.2Z" fill="white"/>
</svg>
