<svg width="65" height="40" viewBox="0 0 65 40" fill="none" xmlns="http://www.w3.org/2000/svg">
<g opacity="0.9">
<path d="M4.56231 22.1313L4.57079 22.1257L4.57904 22.1197C4.84738 21.926 5.27881 21.7543 5.90781 21.634C6.53061 21.5148 7.31272 21.4524 8.25296 21.4524H15.3543C16.8915 21.4524 17.8069 21.5847 18.3309 21.8447C18.56 21.9584 18.7021 22.1053 18.7944 22.2885C18.8916 22.4814 18.9488 22.746 18.9488 23.1111C18.9488 23.4567 18.8826 23.8298 18.791 24.3455C18.7632 24.5022 18.7331 24.672 18.7017 24.8582L16.337 35.8312L16.3368 35.8312L16.3343 35.8448C16.0225 37.5158 15.4807 38.4379 14.9338 38.8327C14.6654 39.0264 14.234 39.1981 13.605 39.3185C12.9822 39.4376 12.2001 39.5 11.2598 39.5H4.15847C3.40192 39.5 2.77049 39.4686 2.26526 39.4012C1.75168 39.3328 1.40824 39.2319 1.20106 39.1177L1.19159 39.1125L1.1819 39.1077C0.757068 38.8969 0.5 38.469 0.5 37.7778C0.5 37.3165 0.557459 36.7863 0.740759 36.0587L0.742793 36.0506L0.744558 36.0424L3.11095 25.1251C3.11107 25.1246 3.1112 25.124 3.11132 25.1235C3.49312 23.4192 3.9726 22.5215 4.56231 22.1313ZM13.6039 34.6452L13.6044 34.6429L15.3281 26.4698C15.4119 26.1757 15.4787 25.8665 15.5272 25.6418C15.55 25.5366 15.5687 25.4499 15.5833 25.392L15.5984 25.3319V25.2699C15.5984 24.9442 15.5013 24.6456 15.2882 24.4059C15.0858 24.1783 14.8158 24.0454 14.54 23.966C14.3684 23.9118 14.1454 23.8967 13.9412 23.8892C13.7161 23.881 13.4367 23.881 13.1237 23.881H13.1152H9.08465C8.59782 23.881 8.17323 23.8968 7.82998 23.9405C7.51589 23.9805 7.18245 24.0525 6.94288 24.225C6.65448 24.4194 6.44699 24.7092 6.29002 25.0392C6.13093 25.3735 6.00907 25.7799 5.90905 26.243C5.909 26.2432 5.90895 26.2435 5.9089 26.2437L4.11785 34.4329L4.11303 34.4549L4.11022 34.4772C4.08938 34.6427 4.06932 34.7819 4.05074 34.9109C4.04106 34.9782 4.03177 35.0426 4.02299 35.1066C3.99881 35.2825 3.97835 35.4549 3.97835 35.6191C3.97835 35.9304 4.0364 36.24 4.22601 36.5006C4.41636 36.7621 4.68814 36.9044 4.97279 36.9864C5.14431 37.0406 5.36737 37.0557 5.57157 37.0632C5.79671 37.0715 6.07612 37.0714 6.38912 37.0714H6.39764H10.4921C11.4035 37.0714 12.1604 36.9473 12.6033 36.6836L12.6321 36.6664L12.6583 36.6456C12.9057 36.4492 13.0908 36.1627 13.2356 35.8393C13.3826 35.5111 13.5036 35.1099 13.6039 34.6452Z" fill="white" stroke="#278DEB"/>
<path d="M36.5001 21.8447L36.5187 21.8539L36.5379 21.8616C36.9194 22.013 37.182 22.4064 37.182 23.1111C37.182 23.4566 37.1158 23.8298 37.0243 24.3455C36.9965 24.5021 36.9663 24.6718 36.935 24.8579L36.0425 28.9701C36.0424 28.9706 36.0423 28.9711 36.0422 28.9715C35.6654 30.6535 35.1245 31.5785 34.5745 31.9755C34.3061 32.1692 33.8747 32.341 33.2457 32.4613C32.6229 32.5805 31.8408 32.6429 30.9005 32.6429H24.183H23.7786L23.6941 33.0384L22.3506 39.3241L22.3505 39.3241L22.3494 39.3298C22.3399 39.3767 22.3216 39.3968 22.3081 39.4073C22.2927 39.4194 22.2598 39.4365 22.1998 39.4365H19.3072L22.2791 26.3413H24.9507C24.9831 26.3413 25.0539 26.364 25.1175 26.4495C25.1802 26.5337 25.1862 26.6128 25.174 26.6553L25.172 26.6622L25.1702 26.6691L24.4025 29.6532L24.2418 30.2778H24.8868H30.1968C30.6526 30.2778 31.0615 30.2619 31.3971 30.218C31.7087 30.1773 32.0471 30.1032 32.2867 29.9249L32.2929 29.9203L32.299 29.9154C32.7529 29.5551 33.1073 28.8474 33.3086 27.9151L33.3102 27.9074L33.3116 27.8996L33.5676 26.5028L33.5701 26.4891L33.5718 26.4752C33.5864 26.3596 33.6018 26.2454 33.6168 26.1346C33.6623 25.7982 33.7037 25.4923 33.7037 25.2699C33.7037 24.9442 33.6066 24.6456 33.3934 24.4059C33.1911 24.1783 32.9211 24.0454 32.6452 23.966C32.4737 23.9118 32.2507 23.8967 32.0465 23.8892C31.8213 23.881 31.5419 23.881 31.2289 23.881H31.2204H22.6313C22.8876 23.2513 23.2733 22.7266 23.7881 22.2982C24.4823 21.7845 25.3355 21.4524 26.2303 21.4524H33.5236C35.0608 21.4524 35.9761 21.5847 36.5001 21.8447Z" fill="white" stroke="#278DEB"/>
<path d="M55.7366 22.6532L55.7566 22.6272L55.7729 22.5987C56.1879 21.8781 56.974 21.4524 57.8347 21.4524H60.2018C60.2514 21.4524 60.2734 21.4709 60.2811 21.4797C60.2852 21.4844 60.2867 21.488 60.2873 21.4894L56.4502 39.3873L56.4501 39.3873L56.4489 39.3933C56.4395 39.4402 56.4212 39.4603 56.4077 39.4708C56.3922 39.4829 56.3593 39.5 56.2993 39.5H53.3358L55.3806 30.0101L54.4936 29.6024L47.6481 38.6183L47.6321 38.6394L47.6185 38.662C47.3156 39.1629 46.766 39.5 46.191 39.5C45.5383 39.5 45.0463 39.2881 44.7107 38.9075C44.3318 38.4777 44.057 37.8798 44.0023 37.228L44.0024 37.228L44.0013 37.218L43.2336 29.853L42.2473 29.8004L40.2001 39.3877L40.2 39.3877L40.1989 39.3933C40.1894 39.4402 40.1712 39.4603 40.1577 39.4708C40.1422 39.4829 40.1093 39.5 40.0493 39.5H37.084L40.4094 23.8548C40.7433 22.4278 42.0158 21.3889 43.504 21.3889H44.7835C44.7952 21.3889 44.7995 21.3908 44.8003 21.3912L44.8003 21.3912C44.8017 21.3918 44.8068 21.3942 44.8152 21.4025C44.8321 21.4193 44.8531 21.4514 44.8677 21.4955L46.3345 33.5209L46.4828 34.7371L47.2277 33.7644L55.7366 22.6532Z" fill="white" stroke="#278DEB"/>
</g>
<path d="M65 0H39.7933L45.6152 6.34921L33.8435 12C33.6516 12.127 33.3957 11.9365 33.3957 11.746L33.2037 8.25397C33.1398 6.92064 31.6683 6.09524 30.5167 6.73016L16.3779 16.254L29.3012 10.9206C29.621 10.8572 30.0049 11.0476 30.0049 11.4286L30.2608 16.3175C30.3248 17.5873 31.6043 18.3492 32.7559 17.8413L47.7264 11.2381L48.9419 21.2064L65 0ZM57.7707 3.61905L51.501 11.9365L50.9892 7.87302L50.8612 6.73016L50.0935 5.90477L47.9823 3.61905H57.7707Z" fill="#2B93E0"/>
</svg>
