<svg width="1015" height="258" viewBox="0 0 1015 258" fill="none" xmlns="http://www.w3.org/2000/svg">
  <path d="M109.111 258C130.361 258 139.861 248.5 144.111 228.5L167.361 118.25C168.111 114.25 168.611 110.5 168.611 107.25C168.611 94.75 161.611 88.75 144.861 88.75H60.6113C39.1113 88.75 29.8613 98.25 25.6113 118.25L2.36133 228.5C1.36133 232.75 0.861328 236.5 0.861328 239.75C0.861328 252 7.86133 258 24.8613 258H109.111ZM108.611 215.75C107.361 221.75 104.611 224.25 96.6113 224.25H49.3613C44.1113 224.25 42.1113 222.75 42.1113 219C42.1113 218.25 42.3613 217 42.6113 215.75L60.6113 131.5C62.1113 124 64.6113 121.75 71.1113 121.75H118.361C124.611 121.75 127.111 123.25 127.111 127.5C127.111 128.5 126.861 130 126.611 131.5L108.611 215.75ZM281.854 203.5C303.354 203.5 312.604 194 316.854 174L328.604 118.25C329.354 114 329.854 110.5 329.854 107.25C329.854 94.75 323.104 88.75 306.104 88.75H229.861C212.512 88.75 197.529 100.888 193.929 117.859V117.859C193.504 119.863 195.033 121.75 197.081 121.75H283.354C288.104 121.75 290.104 122.75 290.104 126.25C290.104 127.25 289.854 128.5 289.604 129.75L282.354 163C280.604 170.75 278.854 172.75 272.604 172.75H220.354L227.049 141.507C227.849 137.772 225.002 134.25 221.182 134.25H193.034C191.617 134.25 190.394 135.241 190.1 136.628L165.122 254.377C164.727 256.243 166.15 258 168.057 258H191.811C197.956 258 203.262 253.697 204.531 247.684L213.854 203.5H281.854ZM435.509 258C441.651 258 446.955 253.701 448.227 247.692L449.973 239.442C451.685 231.358 445.518 223.75 437.255 223.75H376.295C370.045 223.75 368.045 222.25 368.045 218.5C368.045 217.25 368.295 216 368.545 214.5L386.295 132C387.795 124.5 389.795 122.5 397.795 122.5H463.715C469.877 122.5 475.192 118.174 476.444 112.14L478.051 104.39C479.725 96.3205 473.563 88.75 465.322 88.75H386.045C364.795 88.75 355.295 98.25 351.045 118.25L327.795 228.5C326.795 232.75 326.545 236.25 326.545 239.5C326.545 252 333.295 258 350.295 258H435.509ZM493.493 258C499.635 258 504.939 253.701 506.211 247.692L538.707 94.1924C540.418 86.1084 534.252 78.5 525.989 78.5H517.565C511.423 78.5 506.119 82.7987 504.847 88.8076L470.818 249.55C469.896 253.903 473.217 258 477.666 258H493.493ZM639.541 258C657.791 258 665.041 250.25 668.791 233.25L685.041 156.25C685.791 152.5 686.291 149.25 686.291 146.5C686.291 136.25 680.791 131.5 666.291 131.5H580.291C562.291 131.5 554.791 139.25 551.291 156.25L535.041 233.25C534.291 237 533.791 240.25 533.791 243C533.791 253.25 539.541 258 553.541 258H639.541ZM636.541 220.25C635.541 225.25 633.291 227 627.291 227H577.791C573.791 227 572.291 226 572.291 223.5C572.291 222.5 572.541 221.5 572.791 220.25L583.541 168.75C584.541 163.25 586.291 161.75 591.541 161.75H641.041C645.791 161.75 647.791 162.75 647.791 165.75C647.791 166.5 647.541 167.5 647.291 168.75L636.541 220.25ZM812.206 258C818.349 258 823.653 253.7 824.924 247.69L846.176 147.19C847.886 139.106 841.72 131.5 833.458 131.5H825.018C818.881 131.5 813.581 135.791 812.303 141.793L795.494 220.75C794.244 226.25 792.244 228 786.994 228H736.744C732.494 228 730.744 227 730.744 224C730.744 223.25 730.994 222 731.244 220.75L746.9 147.207C748.622 139.119 742.454 131.5 734.185 131.5H725.784C719.64 131.5 714.335 135.801 713.065 141.812L693.744 233.25C692.994 236.75 692.494 240 692.494 242.75C692.494 253.75 698.994 258 712.244 258H767.244C774.084 258 779.608 256.381 784.331 252.756C786.208 251.316 789.991 253.104 789.519 255.422V255.422C789.248 256.754 790.266 258 791.625 258H812.206ZM968.62 258C974.762 258 980.066 253.701 981.338 247.693L1013.84 94.1927C1015.55 86.1086 1009.38 78.5 1001.12 78.5H992.438C986.298 78.5 980.995 82.796 979.721 88.8024L952.591 216.698C951.317 222.704 946.014 227 939.874 227H896.156C891.906 227 890.406 226 890.406 223.25C890.406 222.5 890.656 221.25 890.906 220L901.656 168.75C902.906 163 904.656 161.75 909.906 161.75H941.153C947.28 161.75 952.575 157.472 953.863 151.481L954.776 147.231C956.515 139.136 950.345 131.5 942.066 131.5H898.406C882.656 131.5 872.906 139.25 869.406 156.25L853.156 233.25C852.406 237 851.906 240.25 851.906 243C851.906 253.25 857.656 258 871.656 258H968.62Z" fill="white"/>
  <path d="M892.477 0H719.595L759.525 43.5464L678.788 82.3026C677.472 83.1736 675.717 81.8672 675.717 80.5608L674.401 56.6103C673.962 47.4655 663.87 41.8045 655.972 46.1592L559 111.479L647.635 74.8998C649.829 74.4643 652.461 75.7707 652.461 78.3835L654.216 111.914C654.655 120.623 663.431 125.849 671.329 122.365L774.005 77.0771L782.342 145.445L892.477 0ZM842.894 24.8214L799.893 81.8672L796.383 53.9975L795.505 46.1592L790.24 40.4981L775.76 24.8214H842.894Z" fill="#2B93E0"/>
</svg>
