<svg width="37" height="42" viewBox="0 0 37 42" fill="none" xmlns="http://www.w3.org/2000/svg">
  <path d="M36.2455 11.0535C36.2512 10.969 36.2512 10.8843 36.2455 10.7999C36.2455 10.7999 36.2455 10.7613 36.2455 10.7447C36.225 10.6457 36.1919 10.5495 36.147 10.458C36.147 10.4305 36.147 10.414 36.118 10.3919C36.0891 10.3699 36.0369 10.2486 35.9906 10.1825L35.9268 10.1108C35.8633 10.0273 35.7914 9.94978 35.7124 9.87928L24.6678 0.391801C24.5925 0.331831 24.5131 0.276586 24.4302 0.22642L24.3375 0.187832C24.2762 0.153998 24.2122 0.124517 24.1463 0.0996271L24.0883 0.0665511L23.8739 0.00591082H23.8102C23.7138 -0.00197027 23.6169 -0.00197027 23.5205 0.00591082H1.7384C1.28429 0.00579318 0.848157 0.174728 0.523286 0.476587C0.198415 0.778436 0.0105966 1.18925 0 1.62114V39.4221C0 39.8607 0.183152 40.2813 0.509164 40.5915C0.835178 40.9016 1.27735 41.0758 1.7384 41.0758H34.5361C34.9971 41.0758 35.4394 40.9016 35.7653 40.5915C36.0913 40.2813 36.2745 39.8607 36.2745 39.4221V11.0976C36.2745 11.0976 36.2455 11.07 36.2455 11.0535ZM25.2357 5.31469L30.0452 9.45475H25.2357V5.31469ZM3.47679 37.7793V3.27497H21.7821V11.0976C21.7821 11.5362 21.9652 11.9568 22.2912 12.267C22.6173 12.5772 23.0595 12.7514 23.5205 12.7514H32.7919V37.7793H3.47679Z" fill="#9BAAC0"/>
  <path d="M6.52246 20.9824L9.30566 21.9639V23.3311L5.10156 21.5488V20.3965L9.30566 18.6143V19.9814L6.52246 20.9824ZM11.6104 20.9824L14.3936 21.9639V23.3311L10.1895 21.5488V20.3965L14.3936 18.6143V19.9814L11.6104 20.9824ZM21.2734 23.1016C21.0098 23.4173 20.637 23.6631 20.1553 23.8389C19.6735 24.0114 19.1396 24.0977 18.5537 24.0977C17.9385 24.0977 17.3981 23.9642 16.9326 23.6973C16.4704 23.4271 16.1123 23.0365 15.8584 22.5254C15.6077 22.0143 15.4792 21.4137 15.4727 20.7236V20.2402C15.4727 19.5306 15.5915 18.917 15.8291 18.3994C16.07 17.8786 16.415 17.4814 16.8643 17.208C17.3167 16.9313 17.8457 16.793 18.4512 16.793C19.2943 16.793 19.9535 16.9948 20.4287 17.3984C20.904 17.7988 21.1855 18.3831 21.2734 19.1514H19.8477C19.7826 18.7445 19.6377 18.4466 19.4131 18.2578C19.1917 18.069 18.8857 17.9746 18.4951 17.9746C17.9971 17.9746 17.6178 18.1618 17.3574 18.5361C17.097 18.9105 16.9652 19.4671 16.9619 20.2061V20.6602C16.9619 21.4056 17.1035 21.9688 17.3867 22.3496C17.6699 22.7305 18.085 22.9209 18.6318 22.9209C19.182 22.9209 19.5742 22.8037 19.8086 22.5693V21.3438H18.4756V20.2646H21.2734V23.1016ZM25.2529 20.9678L22.416 19.9766V18.6191L26.6689 20.4014V21.5488L22.416 23.3359V21.9736L25.2529 20.9678ZM30.4189 20.9678L27.582 19.9766V18.6191L31.835 20.4014V21.5488L27.582 23.3359V21.9736L30.4189 20.9678Z" fill="#9BAAC0"/>
  <path d="M26.461 34.2333V34.2333C26.4507 34.3271 26.4807 34.4211 26.5434 34.4915C26.6062 34.562 26.696 34.6022 26.7901 34.6022H27.7686C27.8627 34.6022 27.9525 34.562 28.0153 34.4915C28.078 34.4211 28.1081 34.3271 28.0977 34.2333V34.2333L27.9487 32.889C28.1971 32.6889 28.3443 32.388 28.3443 32.0599C28.3443 31.4704 27.8668 30.9911 27.2793 30.9911C26.6919 30.9911 26.2144 31.4704 26.2144 32.0599C26.2144 32.388 26.3616 32.6889 26.61 32.889L26.461 34.2333ZM27.4529 32.4223H27.4528C27.3669 32.4641 27.3051 32.5398 27.2793 32.628C27.2536 32.5398 27.1918 32.4641 27.1059 32.4223H27.1058C26.9634 32.3529 26.8764 32.2143 26.8764 32.0599C26.8764 31.8371 27.0573 31.6555 27.2793 31.6555C27.5014 31.6555 27.6823 31.8371 27.6823 32.0599C27.6823 32.2143 27.5953 32.3529 27.4529 32.4223ZM27.2793 32.8598L27.3989 33.9378H27.1598L27.2793 32.8598Z" fill="#9BAAC0" stroke="#9BAAC0" stroke-width="0.25"/>
  <path d="M31.4388 29.0267H30.7912V28.1311C30.7912 26.1876 29.216 24.6067 27.2797 24.6067C25.3433 24.6067 23.7682 26.1876 23.7682 28.1311V29.0267H23.1206C22.9377 29.0267 22.7896 29.1753 22.7896 29.3589V35.4978C22.7896 36.0874 23.2671 36.5667 23.8545 36.5667H30.7049C31.2923 36.5667 31.7698 36.0874 31.7698 35.4978V29.3589C31.7698 29.1753 31.6217 29.0267 31.4388 29.0267ZM24.4302 28.1311C24.4302 26.5541 25.7085 25.2711 27.2797 25.2711C28.8509 25.2711 30.1292 26.5541 30.1292 28.1311V29.0267H29.8126V28.1311C29.8126 26.7293 28.6763 25.5889 27.2797 25.5889C25.883 25.5889 24.7468 26.7293 24.7468 28.1311V29.0267H24.4302V28.1311ZM29.1505 28.1311V29.0267H25.4088V28.1311C25.4088 27.0958 26.2482 26.2534 27.2797 26.2534C28.3112 26.2534 29.1505 27.0958 29.1505 28.1311ZM31.1078 35.4978C31.1078 35.7207 30.9269 35.9022 30.7049 35.9022H23.8545C23.6325 35.9022 23.4516 35.7207 23.4516 35.4978V29.6911H31.1078V35.4978Z" fill="#9BAAC0" stroke="#9BAAC0" stroke-width="0.25"/>
</svg>
