<svg width="38" height="45" viewBox="0 0 38 45" fill="none" xmlns="http://www.w3.org/2000/svg">
  <path d="M37.2002 11.9374C37.2002 11.8474 37.2002 11.7474 37.2002 11.6574C37.2002 11.6574 37.2002 11.6176 37.2002 11.5976C37.2002 11.4976 37.0996 11.3875 37.0996 11.2875C37.0996 11.2675 37.0996 11.2475 37.0996 11.2175C36.9996 11.1975 37.0004 11.0675 36.9004 10.9975V10.9174C36.8004 10.8274 36.6996 10.7474 36.5996 10.6674L25.2998 0.427422C25.1998 0.357422 25.0996 0.29749 25.0996 0.24749L25 0.207451C24.9 0.167451 24.7998 0.137598 24.7998 0.107598L24.7002 0.0775684L24.5 0.0075H24.4004C24.3004 -0.0025 24.1996 -0.0025 24.0996 0.0075H1.7998C1.2998 0.0075 0.8 0.18751 0.5 0.51751C0.2 0.84751 0 1.28749 0 1.74749V42.5575C0 43.0375 0.2 43.4876 0.5 43.8276C0.8 44.1576 1.2998 44.3476 1.7998 44.3476H35.4004C35.9004 44.3476 36.4002 44.1576 36.7002 43.8276C37.0002 43.4876 37.2002 43.0375 37.2002 42.5575V11.9875C37.2002 11.9875 37.2002 11.9574 37.2002 11.9374ZM25.9004 5.73748L30.7998 10.2075H25.9004V5.73748ZM3.5 40.7875V3.53753H22.2998V11.9875C22.2998 12.4575 22.5004 12.9075 22.9004 13.2475C23.2004 13.5775 23.5996 13.7675 24.0996 13.7675H33.5996V40.7875H3.5Z" fill="#9BAAC0"/>
  <path d="M28.7002 21.1077H21.2002L18 16.3477C18.6 15.8477 18.9998 15.2476 19.2998 14.5776C19.5998 13.9176 19.7998 13.1875 19.7998 12.4575C19.7998 9.31752 16.9004 6.76758 13.4004 6.76758C9.90039 6.76758 7 9.31752 7 12.4575C7 15.5975 9.90039 18.1377 13.4004 18.1377C13.9004 18.1377 14.3998 18.0775 14.7998 17.9675L18.0996 22.7876V28.6775C18.0996 29.0675 18.2 29.4375 18.5 29.7075C18.8 29.9875 19.2 30.1377 19.5 30.1377H28.5996C28.9996 30.1377 29.4002 29.9875 29.7002 29.7075C30.0002 29.4375 30.0996 29.0675 30.0996 28.6775V22.5676C30.0996 22.1876 30.0002 21.8076 29.7002 21.5376C29.4002 21.2676 29.0002 21.1077 28.7002 21.1077ZM21 27.2175V24.0376H27.2002V27.2175H21ZM13.4004 9.95752C15.2004 9.95752 16.5996 11.0875 16.5996 12.4675C16.5996 13.8475 15.1004 14.9675 13.4004 14.9675C11.6004 14.9675 10.2002 13.8375 10.2002 12.4675C10.2002 11.0875 11.6004 9.9375 13.4004 9.9375V9.95752Z" fill="#9BAAC0"/>
  <path d="M12.2832 24.2031V37H9.65527V24.2031H12.2832ZM16.2207 24.2031V26.2686H5.7793V24.2031H16.2207Z" fill="#9BAAC0"/>
</svg>
