<svg width="82" height="50" viewBox="0 0 82 50" fill="none" xmlns="http://www.w3.org/2000/svg">
<rect width="82" height="50" rx="4" transform="matrix(-1 0 0 1 82 0)" fill="#497284" fill-opacity="0.09"/>
<path fill-rule="evenodd" clip-rule="evenodd" d="M46.868 24L39.1804 17L67.9316 25.5L39.1804 34L46.868 27H14.35V24H46.868ZM47.9249 26.0376L48.5153 25.5L47.9249 24.9624V26.0376ZM46.9707 29.6113L60.8772 25.5L46.9707 21.3887L51.4858 25.5L46.9707 29.6113Z" fill="#586D8C"/>
<path d="M73 11.8092V11.5C73 8.42972 71.2774 6 67.6107 6C63.8949 6 62 8.38554 62 11.5663C62 14.6145 64.1409 17 67.66 17C69.8993 17 71.9172 15.9618 73 14.1727L71.1298 13.2229C70.2931 14.4598 69.3826 15.2329 67.6846 15.2329C65.5682 15.2329 64.2394 13.5763 64.2148 11.8092H73ZM64.3378 10.3072C64.6085 8.82731 65.8881 7.72289 67.6107 7.72289C69.3826 7.72289 70.5145 8.76104 70.7852 10.3072H64.3378Z" fill="#586D8C"/>
</svg>

