<svg width="82" height="50" viewBox="0 0 82 50" fill="none" xmlns="http://www.w3.org/2000/svg">
<rect width="82" height="50" rx="4" transform="matrix(-1 0 0 1 82 0)" fill="#497284" fill-opacity="0.09"/>
<path fill-rule="evenodd" clip-rule="evenodd" d="M46.868 24L39.1804 17L67.9316 25.5L39.1804 34L46.868 27H14.35V24H46.868ZM47.9249 26.0376L48.5153 25.5L47.9249 24.9624V26.0376ZM46.9707 29.6113L60.8772 25.5L46.9707 21.3887L51.4858 25.5L46.9707 29.6113Z" fill="#586D8C"/>
<path d="M76 6.68474C75.1474 6.22088 74.0579 6 73.0632 6C69.6526 6 67 8.36345 67 11.5663C67 14.6586 69.6763 17 72.9447 17C74.0579 17 75.0289 16.8012 76 16.3153V13.7751C75.1947 14.6145 74.2 15.1446 72.9684 15.1446C70.7184 15.1446 69.1316 13.5984 69.1316 11.4779C69.1316 9.57831 70.7421 7.85542 72.8263 7.85542C74.1053 7.85542 75.1474 8.34137 76 9.24699V6.68474Z" fill="#586D8C"/>
</svg>

