<svg width="80" height="50" viewBox="0 0 80 50" fill="none" xmlns="http://www.w3.org/2000/svg">
<rect x="80" width="80" height="50" rx="4" transform="scale(-1 1)" fill="#497284" fill-opacity="0.09"/>
<path fill-rule="evenodd" clip-rule="evenodd" d="M32.7345 31.9055L28.5499 28H53.7502L49.5657 31.9055L46.2501 35L50.5906 33.6848L70.8519 27.5449L74.3002 26.5L70.8519 25.4551L50.5906 19.3152L46.2501 18L49.5657 21.0945L53.7502 25H28.5499L32.7345 21.0945L36.05 18L31.7096 19.3152L11.4482 25.4551L8 26.5L11.4482 27.5449L31.7096 33.6848L36.05 35L32.7345 31.9055ZM28.394 22.4099L25.5782 25.0378L24.0117 26.5L25.5782 27.9622L28.394 30.5901L14.8965 26.5L28.394 22.4099ZM56.7219 25.0378L53.9061 22.4099L67.4037 26.5L53.9061 30.5901L56.7219 27.9622L58.2885 26.5L56.7219 25.0378Z" fill="#586D8C"/>
</svg>
