<svg width="80" height="50" viewBox="0 0 80 50" fill="none" xmlns="http://www.w3.org/2000/svg">
<rect width="80" height="50" rx="4" fill="#497284" fill-opacity="0.09"/>
<path fill-rule="evenodd" clip-rule="evenodd" d="M63 26.5C63 28.9854 60.9852 31 58.5 31C56.0148 31 54 28.9854 54 26.5C54 24.0146 56.0148 22 58.5 22C60.9852 22 63 24.0146 63 26.5ZM66 26.5C66 30.6421 62.6421 34 58.5 34C55.0505 34 52.1449 31.6711 51.2697 28.5H14V25.5H51.066C51.5549 21.8306 54.697 19 58.5 19C62.6421 19 66 22.3579 66 26.5Z" fill="#586D8C"/>
<path d="M0,0h20.5v9h-3v-6.5h-17.5z" transform="translate(55.5,10.5)" fill="#586D8C"/>
</svg>