<svg width="80" height="50" viewBox="0 0 80 50" fill="none" xmlns="http://www.w3.org/2000/svg">
<rect width="80" height="50" rx="4" fill="#497284" fill-opacity="0.09"/>
<path fill-rule="evenodd" clip-rule="evenodd" d="M63 26.5C63 28.9854 60.9852 31 58.5 31C56.0148 31 54 28.9854 54 26.5C54 24.0146 56.0148 22 58.5 22C60.9852 22 63 24.0146 63 26.5ZM66 26.5C66 30.6421 62.6421 34 58.5 34C55.0505 34 52.1449 31.6711 51.2697 28.5H14V25.5H51.066C51.5549 21.8306 54.697 19 58.5 19C62.6421 19 66 22.3579 66 26.5Z" fill="#586D8C"/>
<path d="M76 11.8092V11.5C76 8.42972 74.2774 6 70.6107 6C66.8949 6 65 8.38554 65 11.5663C65 14.6145 67.1409 17 70.66 17C72.8993 17 74.9172 15.9618 76 14.1727L74.1298 13.2229C73.2931 14.4598 72.3826 15.2329 70.6846 15.2329C68.5682 15.2329 67.2394 13.5763 67.2148 11.8092H76ZM67.3378 10.3072C67.6085 8.82731 68.8881 7.72289 70.6107 7.72289C72.3826 7.72289 73.5145 8.76104 73.7852 10.3072H67.3378Z" fill="#586D8C"/>
</svg>

