<svg width="80" height="50" viewBox="0 0 80 50" fill="none" xmlns="http://www.w3.org/2000/svg">
<rect width="80" height="50" rx="4" fill="#497284" fill-opacity="0.09"/>
<path fill-rule="evenodd" clip-rule="evenodd" d="M57.5 34C61.6421 34 65 30.6421 65 26.5C65 22.3579 61.6421 19 57.5 19C53.697 19 50.5549 21.8306 50.066 25.5H13V28.5H50.2697C51.1449 31.6711 54.0505 34 57.5 34Z" fill="#586D8C"/>
<path d="M74 6.68474C73.1474 6.22088 72.0579 6 71.0632 6C67.6526 6 65 8.36345 65 11.5663C65 14.6586 67.6763 17 70.9447 17C72.0579 17 73.0289 16.8012 74 16.3153V13.7751C73.1947 14.6145 72.2 15.1446 70.9684 15.1446C68.7184 15.1446 67.1316 13.5984 67.1316 11.4779C67.1316 9.57831 68.7421 7.85542 70.8263 7.85542C72.1053 7.85542 73.1474 8.34137 74 9.24699V6.68474Z" fill="#586D8C"/>
<path d="M0,0h20.5v9h-3v-6.5h-17.5z" transform="translate(42.5,7.5)" fill="#586D8C"/>
</svg>