<svg width="80" height="50" viewBox="0 0 80 50" fill="none" xmlns="http://www.w3.org/2000/svg">
<rect width="80" height="50" rx="4" transform="matrix(-1 0 0 1 80 0)" fill="#497284" fill-opacity="0.09"/>
<path fill-rule="evenodd" clip-rule="evenodd" d="M32.7345 31.9055L28.5499 28H53.7502L49.5657 31.9055L46.2501 35L50.5906 33.6848L70.8519 27.5449L74.3002 26.5L70.8519 25.4551L50.5906 19.3152L46.2501 18L49.5657 21.0945L53.7502 25H28.5499L32.7345 21.0945L36.05 18L31.7096 19.3152L11.4482 25.4551L8 26.5L11.4482 27.5449L31.7096 33.6848L36.05 35L32.7345 31.9055ZM28.394 22.4099L25.5782 25.0378L24.0117 26.5L25.5782 27.9622L28.394 30.5901L14.8965 26.5L28.394 22.4099ZM56.7219 25.0378L53.9061 22.4099L67.4037 26.5L53.9061 30.5901L56.7219 27.9622L58.2885 26.5L56.7219 25.0378Z" fill="#586D8C"/>
<path d="M74 6.68474C73.1474 6.22088 72.0579 6 71.0632 6C67.6526 6 65 8.36345 65 11.5663C65 14.6586 67.6763 17 70.9447 17C72.0579 17 73.0289 16.8012 74 16.3153V13.7751C73.1947 14.6145 72.2 15.1446 70.9684 15.1446C68.7184 15.1446 67.1316 13.5984 67.1316 11.4779C67.1316 9.57831 68.7421 7.85542 70.8263 7.85542C72.1053 7.85542 73.1474 8.34137 74 9.24699V6.68474Z" fill="#586D8C"/>
</svg>

