<svg width="80" height="50" viewBox="0 0 80 50" fill="none" xmlns="http://www.w3.org/2000/svg">
<rect width="80" height="50" rx="4" transform="matrix(-1 0 0 1 80 0)" fill="#497284" fill-opacity="0.09"/>
<path fill-rule="evenodd" clip-rule="evenodd" d="M32.7345 31.9055L28.5499 28H53.7502L49.5657 31.9055L46.2501 35L50.5906 33.6848L70.8519 27.5449L74.3002 26.5L70.8519 25.4551L50.5906 19.3152L46.2501 18L49.5657 21.0945L53.7502 25H28.5499L32.7345 21.0945L36.05 18L31.7096 19.3152L11.4482 25.4551L8 26.5L11.4482 27.5449L31.7096 33.6848L36.05 35L32.7345 31.9055ZM28.394 22.4099L25.5782 25.0378L24.0117 26.5L25.5782 27.9622L28.394 30.5901L14.8965 26.5L28.394 22.4099ZM56.7219 25.0378L53.9061 22.4099L67.4037 26.5L53.9061 30.5901L56.7219 27.9622L58.2885 26.5L56.7219 25.0378Z" fill="#586D8C"/>
<path d="M74 11.8092V11.5C74 8.42972 72.2774 6 68.6107 6C64.8949 6 63 8.38554 63 11.5663C63 14.6145 65.1409 17 68.66 17C70.8993 17 72.9172 15.9618 74 14.1727L72.1298 13.2229C71.2931 14.4598 70.3826 15.2329 68.6846 15.2329C66.5682 15.2329 65.2394 13.5763 65.2148 11.8092H74ZM65.3378 10.3072C65.6085 8.82731 66.8881 7.72289 68.6107 7.72289C70.3826 7.72289 71.5145 8.76104 71.7852 10.3072H65.3378Z" fill="#586D8C"/>
</svg>

