<svg width="80" height="50" viewBox="0 0 80 50" fill="none" xmlns="http://www.w3.org/2000/svg">
<rect width="80" height="50" rx="4" fill="#497284" fill-opacity="0.09"/>
<path fill-rule="evenodd" clip-rule="evenodd" d="M63 26.5C63 28.9854 60.9852 31 58.5 31C56.0148 31 54 28.9854 54 26.5C54 24.0146 56.0148 22 58.5 22C60.9852 22 63 24.0146 63 26.5ZM66 26.5C66 30.6421 62.6421 34 58.5 34C55.0505 34 52.1449 31.6711 51.2697 28.5H14V25.5H51.066C51.5549 21.8306 54.697 19 58.5 19C62.6421 19 66 22.3579 66 26.5Z" fill="#586D8C"/>
<path d="M75 6.68474C74.1474 6.22088 73.0579 6 72.0632 6C68.6526 6 66 8.36345 66 11.5663C66 14.6586 68.6763 17 71.9447 17C73.0579 17 74.0289 16.8012 75 16.3153V13.7751C74.1947 14.6145 73.2 15.1446 71.9684 15.1446C69.7184 15.1446 68.1316 13.5984 68.1316 11.4779C68.1316 9.57831 69.7421 7.85542 71.8263 7.85542C73.1053 7.85542 74.1474 8.34137 75 9.24699V6.68474Z" fill="#586D8C"/>
</svg>

