<svg width="41" height="41" viewBox="0 0 41 41" fill="none" xmlns="http://www.w3.org/2000/svg">
<path d="M34.5182 34.7659C26.7078 42.5764 14.0444 42.5764 6.23396 34.7659C-1.57652 26.9554 -1.57652 14.2921 6.23396 6.48164C14.0444 -1.32884 26.7078 -1.32884 34.5182 6.48164C42.3287 14.2921 42.3287 26.9554 34.5182 34.7659Z" fill="#1A3763" fill-opacity="0.8"/>
<path fill-rule="evenodd" clip-rule="evenodd" d="M16.2548 11H10V13H16.2548C16.9006 13 17.5259 13.2278 18.0205 13.6432C18.6415 14.1648 19 14.9342 19 15.7452V22.0858L16.7072 19.7928L15.2928 21.2072L19 24.9143V25H19.0857L19.2928 25.2072L20 25.9142L20.7072 25.2072L20.9143 25H21V24.9143L24.7072 21.2072L23.2928 19.7928L21 22.0858V15.7452C21 14.9342 21.3585 14.1648 21.9795 13.6432C22.4741 13.2278 23.0994 13 23.7452 13H30V11H23.7452C22.6288 11 21.548 11.3937 20.6931 12.1118C20.4351 12.3285 20.2032 12.5701 20 12.8313C19.7968 12.5701 19.5649 12.3285 19.3069 12.1118C18.452 11.3937 17.3712 11 16.2548 11ZM14 17C12.3431 17 11 18.3431 11 20V26C11 27.6569 12.3431 29 14 29H26C27.6569 29 29 27.6569 29 26V20C29 18.3431 27.6569 17 26 17H25V15H26C28.7615 15 31 17.2385 31 20V26C31 28.7615 28.7615 31 26 31H14C11.2385 31 9 28.7615 9 26V20C9 17.2385 11.2385 15 14 15H15V17H14Z" fill="white"/>
</svg>
