<svg width="38" height="45" viewBox="0 0 38 45" fill="none" xmlns="http://www.w3.org/2000/svg">
<path d="M37.2251 11.9327C37.231 11.8415 37.231 11.7501 37.2251 11.6589C37.2251 11.6589 37.2251 11.6173 37.2251 11.5994C37.2041 11.4926 37.1701 11.3886 37.124 11.29C37.124 11.2602 37.124 11.2424 37.0942 11.2186C37.0644 11.1947 37.0109 11.0638 36.9633 10.9924L36.8978 10.915C36.8326 10.8249 36.7588 10.7412 36.6776 10.6651L25.3345 0.422969C25.2571 0.35823 25.1756 0.298591 25.0905 0.244431L24.9953 0.202772C24.9323 0.166248 24.8666 0.134422 24.7989 0.107552L24.7394 0.0718447L24.5192 0.00638079H24.4537C24.3547 -0.00212693 24.2552 -0.00212693 24.1562 0.00638079H1.78538C1.319 0.00625381 0.87108 0.188626 0.537428 0.514492C0.203777 0.840358 0.0108822 1.28385 0 1.7501L0 42.5579C0 43.0314 0.188102 43.4855 0.522925 43.8203C0.857748 44.1552 1.31187 44.3433 1.78538 44.3433H35.4695C35.943 44.3433 36.3971 44.1552 36.732 43.8203C37.0668 43.4855 37.2549 43.0314 37.2549 42.5579V11.9803C37.2549 11.9803 37.2251 11.9506 37.2251 11.9327ZM25.9177 5.73744L30.8573 10.2068H25.9177V5.73744ZM3.57076 40.7844V3.53548H22.3708V11.9803C22.3708 12.4538 22.5589 12.9079 22.8937 13.2428C23.2285 13.5776 23.6827 13.7657 24.1562 13.7657H33.6782V40.7844H3.57076Z" fill="#9BAAC0"/>
<path d="M18.5352 15.2651C13.8483 15.2651 10.0352 19.0783 10.0352 23.7651C10.0352 28.452 13.8483 32.2651 18.5352 32.2651C23.222 32.2651 27.0352 28.452 27.0352 23.7651C27.0352 19.0783 23.222 15.2651 18.5352 15.2651ZM13.444 24.0352C13.3829 24.0852 13.3079 24.1193 13.2227 24.1193C13.0269 24.1193 12.8685 23.9609 12.8685 23.7651C12.8685 23.3551 12.9243 22.9508 13.011 22.5538C13.011 22.5538 13.0807 22.2397 13.0836 22.2316C13.7633 19.8188 16.0021 18.0985 18.5352 18.0985C20.5891 18.0985 22.4948 19.2302 23.4882 21.0104C23.5862 21.1863 23.5059 21.4108 23.324 21.4971L22.6827 21.8015C22.512 21.8826 22.3153 21.8107 22.2208 21.6471C21.4675 20.3418 20.0555 19.5151 18.5352 19.5151C17.0592 19.5151 15.7168 20.2941 14.9513 21.489L15.4597 21.6585C15.5815 21.6989 15.6717 21.8023 15.6956 21.9286C15.7195 22.0548 15.6731 22.1842 15.5745 22.2665L13.4495 24.0373C13.4478 24.0388 13.4458 24.0343 13.444 24.0352ZM24.0961 24.9765C24.0961 24.9765 24.0264 25.2905 24.0235 25.2987C23.3438 27.7115 21.105 29.4318 18.5719 29.4318C16.518 29.4318 14.6124 28.3001 13.619 26.5198C13.5209 26.344 13.6012 26.1194 13.7831 26.0331L14.4245 25.7287C14.5952 25.6477 14.7919 25.7195 14.8863 25.8832C15.6396 27.1885 17.0516 28.0151 18.572 28.0151C20.048 28.0151 21.3903 27.2361 22.1558 26.0413L21.6474 25.8718C21.5257 25.8313 21.4354 25.7279 21.4115 25.6017C21.3877 25.4755 21.434 25.3461 21.5326 25.2638L23.6576 23.493C23.6594 23.4915 23.6614 23.496 23.6631 23.4951C23.7242 23.4451 23.7993 23.411 23.8845 23.411C24.0803 23.411 24.2387 23.5694 24.2387 23.7652C24.2387 24.1751 24.1828 24.5795 24.0961 24.9765Z" fill="#9BAAC0"/>
</svg>
