<svg width="40" height="40" viewBox="0 0 40 40" fill="none" xmlns="http://www.w3.org/2000/svg">
<path d="M20 0C31.0457 0 40 8.9543 40 20C40 31.0457 31.0457 40 20 40C8.9543 40 0 31.0457 0 20C0 8.9543 8.9543 0 20 0Z" fill="#1A3763" fill-opacity="0.8"/>
<path fill-rule="evenodd" clip-rule="evenodd" d="M20.5 9C19.3954 9 18.5 9.89545 18.5 11V20.5858L17.5 19.5858C17.1249 19.2107 16.6162 19 16.0858 19H14.5V21H16.0858L18.7928 23.7072L20.5 25.4142V23V11H27V9H20.5ZM11 18C11 16.3431 12.3431 15 14 15H15V13H14C11.2385 13 9 15.2385 9 18V24C9 26.7615 11.2385 29 14 29H26C28.7615 29 31 26.7615 31 24V18C31 15.2385 28.7615 13 26 13H25V15H26C27.6569 15 29 16.3431 29 18V24C29 25.6569 27.6569 27 26 27H14C12.3431 27 11 25.6569 11 24V18Z" fill="white"/>
</svg>
