<svg width="40" height="40" viewBox="0 0 40 40" fill="none" xmlns="http://www.w3.org/2000/svg">
<path d="M34.1421 34.1421C26.3317 41.9526 13.6684 41.9526 5.85786 34.1421C-1.95262 26.3316 -1.95262 13.6684 5.85786 5.85786C13.6684 -1.95262 26.3317 -1.95262 34.1421 5.85786C41.9526 13.6684 41.9526 26.3316 34.1421 34.1421Z" fill="#1A3763" fill-opacity="0.8"/>
<path fill-rule="evenodd" clip-rule="evenodd" d="M25.985 15.7413H14.7449C14.2213 15.7413 13.8102 16.1911 13.8543 16.7154L14.8087 28.2215C14.8453 28.6618 15.2104 29 15.6487 29H25.0803C25.5186 29 25.8846 28.6618 25.9212 28.2215L26.8756 16.7154C26.9188 16.1911 26.5077 15.7413 25.985 15.7413V15.7413ZM13.846 14.171C13.2689 14.171 12.8738 13.6353 13.0371 13.0769L13.4369 11.5576C13.5288 11.2496 13.7635 11.0484 14.0844 10.9851C14.4054 10.9208 16.8792 10.6978 17.4798 10.661C17.752 10.6468 17.92 10.4191 17.9622 10.285C18.0054 10.1508 18.2869 9.5291 18.4624 9.30423C18.5431 9.20219 18.8988 9 20.3647 9C21.8315 9 22.1947 9.20219 22.2745 9.30423C22.45 9.5291 22.7315 10.1508 22.7747 10.285C22.8169 10.4191 22.9858 10.6468 23.257 10.661C23.8577 10.6978 26.3315 10.9208 26.6524 10.9851C26.9743 11.0484 27.2089 11.2496 27.3009 11.5576L27.6998 13.0769C27.8631 13.6353 27.468 14.171 26.8908 14.171H13.846V14.171Z" fill="white"/>
</svg>
