<svg width="40" height="40" viewBox="0 0 40 40" fill="none" xmlns="http://www.w3.org/2000/svg">
<path d="M34.1432 5.85825C41.9523 13.6682 41.9523 26.3322 34.1432 34.1422C26.3342 41.9532 13.6658 41.9532 5.85676 34.1422C-1.95225 26.3322 -1.95225 13.6682 5.85676 5.85825C13.6658 -1.95275 26.3342 -1.95275 34.1432 5.85825Z" fill="#1A3763" fill-opacity="0.8"/>
<path d="M15.7114 21.3887H12.8862L12.3491 23H10.6357L13.5469 15.1797H15.04L17.9673 23H16.2539L15.7114 21.3887ZM13.3213 20.0835H15.2764L14.2935 17.1562L13.3213 20.0835ZM20.2339 23H18.6763V14.75H20.2339V23ZM23.1558 23H21.5981V17.1885H23.1558V23ZM21.5068 15.6846C21.5068 15.4518 21.5838 15.2603 21.7378 15.1099C21.8953 14.9595 22.1084 14.8843 22.377 14.8843C22.6419 14.8843 22.8532 14.9595 23.0107 15.1099C23.1683 15.2603 23.2471 15.4518 23.2471 15.6846C23.2471 15.9209 23.1665 16.1143 23.0054 16.2646C22.8478 16.415 22.6383 16.4902 22.377 16.4902C22.1156 16.4902 21.9043 16.415 21.7432 16.2646C21.5856 16.1143 21.5068 15.9209 21.5068 15.6846ZM27.8071 23C27.7355 22.8604 27.6836 22.6867 27.6514 22.479C27.2754 22.8979 26.7866 23.1074 26.1851 23.1074C25.6157 23.1074 25.1431 22.9427 24.7671 22.6133C24.3947 22.2839 24.2085 21.8685 24.2085 21.3672C24.2085 20.7513 24.4359 20.2786 24.8906 19.9492C25.349 19.6198 26.0096 19.4533 26.8726 19.4497H27.5869V19.1167C27.5869 18.8481 27.5171 18.6333 27.3774 18.4722C27.2414 18.311 27.0247 18.2305 26.7275 18.2305C26.4661 18.2305 26.2603 18.2931 26.1099 18.4185C25.9631 18.5438 25.8896 18.7157 25.8896 18.9341H24.3374C24.3374 18.5975 24.4412 18.286 24.6489 17.9995C24.8566 17.7131 25.1502 17.4893 25.5298 17.3281C25.9093 17.1634 26.3354 17.0811 26.8081 17.0811C27.5243 17.0811 28.0918 17.2619 28.5107 17.6235C28.9333 17.9816 29.1445 18.4865 29.1445 19.1382V21.6572C29.1481 22.2087 29.2251 22.6258 29.3755 22.9087V23H27.8071ZM26.5234 21.9204C26.7526 21.9204 26.9639 21.8703 27.1572 21.77C27.3506 21.6662 27.4938 21.5283 27.5869 21.3564V20.3574H27.0068C26.2298 20.3574 25.8162 20.626 25.7661 21.1631L25.7607 21.2544C25.7607 21.4478 25.8288 21.6071 25.9648 21.7324C26.1009 21.8577 26.2871 21.9204 26.5234 21.9204ZM33.4844 21.394C33.4844 21.2043 33.3895 21.0557 33.1997 20.9482C33.0135 20.8372 32.7127 20.7388 32.2974 20.6528C30.9152 20.3628 30.2241 19.7756 30.2241 18.8911C30.2241 18.3755 30.4372 17.9458 30.8633 17.6021C31.293 17.2547 31.8534 17.0811 32.5444 17.0811C33.2821 17.0811 33.8711 17.2547 34.3115 17.6021C34.7555 17.9494 34.9775 18.4006 34.9775 18.9556H33.4253C33.4253 18.7336 33.3537 18.5509 33.2104 18.4077C33.0672 18.2609 32.8434 18.1875 32.5391 18.1875C32.2777 18.1875 32.0754 18.2466 31.9321 18.3647C31.7889 18.4829 31.7173 18.6333 31.7173 18.8159C31.7173 18.9878 31.7979 19.1274 31.959 19.2349C32.1237 19.3387 32.3994 19.43 32.7861 19.5088C33.1729 19.584 33.4987 19.6699 33.7637 19.7666C34.5837 20.0674 34.9937 20.5884 34.9937 21.3296C34.9937 21.8595 34.7663 22.2892 34.3115 22.6187C33.8568 22.9445 33.2695 23.1074 32.5498 23.1074C32.0628 23.1074 31.6296 23.0215 31.25 22.8496C30.874 22.6742 30.5786 22.436 30.3638 22.1353C30.1489 21.8309 30.0415 21.5033 30.0415 21.1523H31.5132C31.5275 21.4281 31.6296 21.6393 31.8193 21.7861C32.0091 21.9329 32.2633 22.0063 32.582 22.0063C32.8792 22.0063 33.103 21.9508 33.2534 21.8398C33.4074 21.7253 33.4844 21.5767 33.4844 21.394Z" fill="#E9ECEE"/>
<path fill-rule="evenodd" clip-rule="evenodd" d="M4.61294 18.0073L3.81855 17.8283C3.59738 17.7785 3.56607 17.3714 3.7668 17.1707L7.07417 13.8149C7.3575 13.5283 7.72128 13.6042 7.85814 13.9855L9.48646 18.4529C9.58593 18.7213 9.38264 19.0816 9.15937 19.0313L8.15133 18.8042C7.84779 18.7359 7.51997 19.0367 7.41987 19.4752C6.70684 22.6038 6.96043 24.2905 7.32287 25.3066C7.43081 25.6076 7.14495 25.9795 6.94573 25.7933C5.10326 24.0749 4.63975 21.2898 5.01563 18.9091C5.08466 18.4758 4.90854 18.0738 4.61294 18.0073Z" fill="#E9ECEE"/>
</svg>
