<svg width="40" height="40" viewBox="0 0 40 40" fill="none" xmlns="http://www.w3.org/2000/svg">
<path d="M34.1432 5.85825C41.9523 13.6682 41.9523 26.3322 34.1432 34.1422C26.3342 41.9532 13.6658 41.9532 5.85676 34.1422C-1.95225 26.3322 -1.95225 13.6682 5.85676 5.85825C13.6658 -1.95275 26.3342 -1.95275 34.1432 5.85825Z" fill="#1A3763" fill-opacity="0.8"/>
<line x1="19.5" y1="33" x2="19.5" y2="8" stroke="#E9ECEE"/>
<circle cx="12.5" cy="12.5" r="5.5" fill="#E9ECEE"/>
<path d="M9 15H16V17C16 17.5523 15.5523 18 15 18H10C9.44772 18 9 17.5523 9 17V15Z" fill="#E9ECEE"/>
<path d="M10.6787 12.5742L10.2979 12.9844V14H9.56543V10.4453H10.2979V12.0566L10.6201 11.6147L11.5259 10.4453H12.4268L11.1646 12.0249L12.4634 14H11.5918L10.6787 12.5742ZM15.4736 13.5508C15.3418 13.7087 15.1554 13.8315 14.9146 13.9194C14.6737 14.0057 14.4067 14.0488 14.1138 14.0488C13.8062 14.0488 13.536 13.9821 13.3032 13.8486C13.0721 13.7135 12.8931 13.5182 12.7661 13.2627C12.6408 13.0072 12.5765 12.7069 12.5732 12.3618V12.1201C12.5732 11.7653 12.6326 11.4585 12.7515 11.1997C12.8719 10.9393 13.0444 10.7407 13.269 10.604C13.4953 10.4657 13.7598 10.3965 14.0625 10.3965C14.484 10.3965 14.8136 10.4974 15.0513 10.6992C15.2889 10.8994 15.4297 11.1916 15.4736 11.5757H14.7607C14.7282 11.3722 14.6558 11.2233 14.5435 11.1289C14.4328 11.0345 14.2798 10.9873 14.0845 10.9873C13.8354 10.9873 13.6458 11.0809 13.5156 11.2681C13.3854 11.4552 13.3195 11.7336 13.3179 12.103V12.3301C13.3179 12.7028 13.3887 12.9844 13.5303 13.1748C13.6719 13.3652 13.8794 13.4604 14.1528 13.4604C14.4279 13.4604 14.624 13.4019 14.7412 13.2847V12.6719H14.0747V12.1323H15.4736V13.5508Z" fill="#475E81"/>
<path d="M28.085 14.9429C28.085 14.6493 28.0026 14.4165 27.8379 14.2446C27.6768 14.0692 27.401 13.908 27.0107 13.7612C26.6204 13.6144 26.2839 13.4694 26.001 13.3262C25.7181 13.1794 25.4746 13.0129 25.2705 12.8267C25.07 12.6369 24.9124 12.4149 24.7979 12.1606C24.6868 11.9064 24.6313 11.6038 24.6313 11.2529C24.6313 10.6478 24.8247 10.1519 25.2114 9.76514C25.5981 9.37842 26.112 9.15283 26.7529 9.08838V7.93896H27.6123V9.10449C28.2461 9.19401 28.742 9.45898 29.1001 9.89941C29.4582 10.3363 29.6372 10.9038 29.6372 11.6021H28.085C28.085 11.1724 27.9954 10.8519 27.8164 10.6406C27.641 10.4258 27.4046 10.3184 27.1074 10.3184C26.8138 10.3184 26.5864 10.4025 26.4253 10.5708C26.2642 10.7355 26.1836 10.9647 26.1836 11.2583C26.1836 11.5304 26.2624 11.7489 26.4199 11.9136C26.5775 12.0783 26.8693 12.2466 27.2954 12.4185C27.7251 12.5903 28.0778 12.7533 28.3535 12.9072C28.6292 13.0576 28.862 13.2295 29.0518 13.4229C29.2415 13.6126 29.3866 13.8311 29.4868 14.0781C29.5871 14.3216 29.6372 14.6063 29.6372 14.9321C29.6372 15.5409 29.4474 16.035 29.0679 16.4146C28.6883 16.7941 28.1655 17.0179 27.4995 17.0859V18.1548H26.6455V17.0913C25.9115 17.0125 25.3421 16.7529 24.9375 16.3125C24.5365 15.8685 24.3359 15.2795 24.3359 14.5454H25.8882C25.8882 14.9715 25.9884 15.2992 26.189 15.5283C26.3931 15.7539 26.6849 15.8667 27.0645 15.8667C27.3796 15.8667 27.6284 15.7843 27.811 15.6196C27.9937 15.4513 28.085 15.2257 28.085 14.9429Z" fill="#E9ECEE"/>
<rect x="10.5" y="22.5" width="4" height="10" stroke="#E9ECEE"/>
<line x1="10" y1="30.5" x2="12.2361" y2="30.5" stroke="#E9ECEE"/>
<line x1="10" y1="26.5" x2="12.2361" y2="26.5" stroke="#E9ECEE"/>
<line x1="10" y1="24.5" x2="12.2361" y2="24.5" stroke="#E9ECEE"/>
<line x1="10" y1="28.5" x2="12.2361" y2="28.5" stroke="#E9ECEE"/>
<circle cx="27" cy="28" r="4.5" stroke="#E9ECEE"/>
<rect x="26" y="23" width="2" height="1" fill="#E9ECEE"/>
<path d="M25 22C25 21.4477 25.4477 21 26 21H28C28.5523 21 29 21.4477 29 22V23H25V22Z" fill="#E9ECEE"/>
<rect width="2.52587" height="1.68265" rx="0.3" transform="matrix(0.678067 -0.735 0.727684 0.685913 22 24.5488)" fill="#E9ECEE"/>
<rect width="2.52587" height="1.68265" rx="0.3" transform="matrix(0.678067 0.735 -0.727684 0.685913 30.2874 22.6924)" fill="#E9ECEE"/>
<circle cx="27" cy="28" r="1" fill="#E9ECEE"/>
<line x1="7.5" y1="20" x2="32.5" y2="20" stroke="#E9ECEE"/>
</svg>
