<svg width="41" height="41" viewBox="0 0 41 41" fill="none" xmlns="http://www.w3.org/2000/svg">
<path d="M34.5182 34.7659C26.7078 42.5764 14.0444 42.5764 6.23396 34.7659C-1.57652 26.9554 -1.57652 14.2921 6.23396 6.48164C14.0444 -1.32884 26.7078 -1.32884 34.5182 6.48164C42.3287 14.2921 42.3287 26.9554 34.5182 34.7659Z" fill="#1A3763" fill-opacity="0.8"/>
<path fill-rule="evenodd" clip-rule="evenodd" d="M32.1163 19.5323C30.6323 17.5233 26.8273 13.4453 20.3873 13.4453C13.9713 13.4453 10.1363 17.5333 8.64133 19.5393C8.16033 20.1853 8.15233 21.0713 8.62433 21.7233C10.0803 23.7353 13.8343 27.8023 20.3873 27.8023C26.8583 27.8023 30.6453 23.7293 32.1203 21.7193C32.5973 21.0693 32.5953 20.1803 32.1163 19.5323ZM20.3773 25.5533C17.6543 25.5533 15.4473 23.3463 15.4473 20.6243C15.4473 17.9013 17.6543 15.6943 20.3773 15.6943C23.0993 15.6943 25.3063 17.9013 25.3063 20.6243C25.3063 23.3463 23.0993 25.5533 20.3773 25.5533ZM23.5098 20.6243C23.5098 22.3536 22.1066 23.7568 20.3773 23.7568C18.6468 23.7568 17.2448 22.3536 17.2448 20.6243C17.2448 18.8938 18.6468 17.4918 20.3773 17.4918C22.1066 17.4918 23.5098 18.8938 23.5098 20.6243Z" fill="white"/>
</svg>
