<svg width="38" height="45" viewBox="0 0 38 45" fill="none" xmlns="http://www.w3.org/2000/svg">
<path d="M37.2251 11.9327C37.231 11.8415 37.231 11.7501 37.2251 11.6589C37.2251 11.6589 37.2251 11.6173 37.2251 11.5994C37.2041 11.4926 37.1701 11.3886 37.124 11.29C37.124 11.2602 37.124 11.2424 37.0942 11.2186C37.0644 11.1947 37.0109 11.0638 36.9633 10.9924L36.8978 10.915C36.8326 10.8249 36.7588 10.7412 36.6776 10.6651L25.3345 0.422969C25.2571 0.35823 25.1756 0.298591 25.0905 0.244431L24.9953 0.202772C24.9323 0.166248 24.8666 0.134422 24.7989 0.107552L24.7394 0.0718447L24.5192 0.00638079H24.4537C24.3547 -0.00212693 24.2552 -0.00212693 24.1562 0.00638079H1.78538C1.319 0.00625381 0.87108 0.188626 0.537428 0.514492C0.203777 0.840358 0.0108822 1.28385 0 1.7501L0 42.5579C0 43.0314 0.188102 43.4855 0.522925 43.8203C0.857748 44.1552 1.31187 44.3433 1.78538 44.3433H35.4695C35.943 44.3433 36.3971 44.1552 36.732 43.8203C37.0668 43.4855 37.2549 43.0314 37.2549 42.5579V11.9803C37.2549 11.9803 37.2251 11.9506 37.2251 11.9327ZM25.9177 5.73744L30.8573 10.2068H25.9177V5.73744ZM3.57076 40.7844V3.53548H22.3708V11.9803C22.3708 12.4538 22.5589 12.9079 22.8937 13.2428C23.2285 13.5776 23.6827 13.7657 24.1562 13.7657H33.6782V40.7844H3.57076Z" fill="#9BAAC0"/>
<g clip-path="url(#clip0)">
<path d="M17.315 29.7595L17.315 29.7596C17.3001 29.8949 17.3436 30.0305 17.4343 30.132L17.4343 30.132C17.5252 30.2336 17.6552 30.2916 17.7914 30.2916H19.208C19.3442 30.2916 19.4742 30.2336 19.5651 30.132C19.6558 30.0305 19.6994 29.8949 19.6844 29.7596L19.6844 29.7595L19.4687 27.8206C19.8283 27.5321 20.0414 27.0981 20.0414 26.6249C20.0414 25.7746 19.3501 25.0833 18.4997 25.0833C17.6493 25.0833 16.958 25.7746 16.958 26.6249C16.958 27.0981 17.1711 27.5321 17.5307 27.8206L17.315 29.7595ZM18.7509 27.1475L18.7508 27.1475C18.6264 27.2079 18.537 27.317 18.4997 27.4442C18.4624 27.317 18.373 27.2079 18.2486 27.1475L18.2485 27.1475C18.0423 27.0475 17.9164 26.8475 17.9164 26.6249V26.6249C17.9164 26.3035 18.1783 26.0416 18.4997 26.0416C18.8211 26.0416 19.083 26.3035 19.083 26.6249C19.083 26.8475 18.9571 27.0475 18.7509 27.1475ZM18.4997 27.7786L18.6727 29.3333H18.3267L18.4997 27.7786Z" fill="#9BAAC0" stroke="#9BAAC0" stroke-width="0.25"/>
<path d="M24.5208 22.25H23.5833V20.9583C23.5833 18.1552 21.3031 15.875 18.5 15.875C15.6969 15.875 13.4167 18.1552 13.4167 20.9583V22.25H12.4792C12.2144 22.25 12 22.4644 12 22.7292V31.5834C12 32.4337 12.6913 33.125 13.5417 33.125H23.4584C24.3087 33.125 25 32.4337 25 31.5833V22.7292C25 22.4644 24.7856 22.25 24.5208 22.25ZM14.375 20.9583C14.375 18.6838 16.2255 16.8333 18.5 16.8333C20.7745 16.8333 22.625 18.6838 22.625 20.9583V22.25H22.1667V20.9583C22.1667 18.9365 20.5218 17.2916 18.5 17.2916C16.4782 17.2916 14.8333 18.9365 14.8333 20.9583V22.25H14.375V20.9583ZM21.2083 20.9583V22.25H15.7917V20.9583C15.7917 19.4651 17.0068 18.25 18.5 18.25C19.9932 18.25 21.2083 19.4651 21.2083 20.9583ZM24.0417 31.5833C24.0417 31.9048 23.7798 32.1666 23.4584 32.1666H13.5417C13.2202 32.1666 12.9584 31.9048 12.9584 31.5833V23.2083H24.0417V31.5833Z" fill="#9BAAC0" stroke="#9BAAC0" stroke-width="0.25"/>
</g>
<defs>
<clipPath id="clip0">
<rect width="17" height="17" fill="white" transform="translate(10 16)"/>
</clipPath>
</defs>
</svg>

