<svg width="38" height="42" viewBox="0 0 38 42" fill="none" xmlns="http://www.w3.org/2000/svg">
  <path d="M37.1947 11.1789C37.2004 11.0944 37.2004 11.0098 37.1947 10.9253C37.1947 10.9253 37.1947 10.8867 37.1947 10.8702C37.1742 10.7711 37.1411 10.6749 37.0963 10.5835C37.0963 10.556 37.0963 10.5394 37.0672 10.5173C37.0383 10.4953 36.9861 10.374 36.9398 10.3079L36.876 10.2362C36.8125 10.1527 36.7407 10.0752 36.6616 10.0047L25.617 0.517228C25.5417 0.457259 25.4623 0.402013 25.3794 0.351848L25.2867 0.313259C25.2254 0.279425 25.1614 0.249944 25.0955 0.225054L25.0376 0.191978L24.8232 0.131338H24.7594C24.663 0.123457 24.5661 0.123457 24.4697 0.131338H2.68762C2.23351 0.13122 1.79738 0.300155 1.4725 0.602014C1.14763 0.903863 0.959815 1.31467 0.949219 1.74657V39.5475C0.949219 39.9861 1.13237 40.4068 1.45838 40.7169C1.7844 41.027 2.22657 41.2013 2.68762 41.2013H35.4853C35.9463 41.2013 36.3886 41.027 36.7146 40.7169C37.0406 40.4068 37.2237 39.9861 37.2237 39.5475V11.223C37.2237 11.223 37.1947 11.1954 37.1947 11.1789ZM26.185 5.44011L30.9945 9.58018H26.185V5.44011ZM4.42601 37.9047V3.4004H22.7313V11.223C22.7313 11.6616 22.9144 12.0823 23.2404 12.3924C23.5665 12.7026 24.0087 12.8768 24.4697 12.8768H33.7411V37.9047H4.42601Z" fill="#9BAAC0"/>
  <path d="M8.15967 20.8271L11.7778 22.103V23.8804L6.3125 21.5635V20.0654L11.7778 17.7485V19.5259L8.15967 20.8271ZM14.7739 20.8271L18.3921 22.103V23.8804L12.9268 21.5635V20.0654L18.3921 17.7485V19.5259L14.7739 20.8271ZM23.6479 20.8081L19.96 19.5195V17.7549L25.4888 20.0718V21.5635L19.96 23.8867V22.1157L23.6479 20.8081ZM30.3638 20.8081L26.6758 19.5195V17.7549L32.2046 20.0718V21.5635L26.6758 23.8867V22.1157L30.3638 20.8081Z" fill="#9BAAC0"/>
</svg>
