<svg width="24" height="30" viewBox="0 0 38 46" fill="none" xmlns="http://www.w3.org/2000/svg">
            <path d="M37.3784 12.6676C37.3843 12.5764 37.3843 12.485 37.3784 12.3938C37.3784 12.3938 37.3784 12.3522 37.3784 12.3343C37.3574 12.2274 37.3234 12.1235 37.2773 12.0248C37.2773 11.9951 37.2773 11.9772 37.2475 11.9534C37.2178 11.9296 37.1642 11.7987 37.1166 11.7273L37.0511 11.6499C36.9859 11.5598 36.9121 11.4761 36.8309 11.4L25.4878 1.15783C25.4105 1.09309 25.3289 1.03345 25.2438 0.979294L25.1486 0.937636C25.0856 0.901111 25.0199 0.869285 24.9522 0.842415L24.8927 0.806708L24.6725 0.741244H24.607C24.508 0.732736 24.4085 0.732736 24.3095 0.741244H1.9387C1.47232 0.741117 1.0244 0.92349 0.690749 1.24936C0.357098 1.57522 0.164203 2.01871 0.15332 2.48496L0.15332 43.2928C0.15332 43.7663 0.341422 44.2204 0.676245 44.5552C1.01107 44.89 1.46519 45.0781 1.9387 45.0781H35.6228C36.0963 45.0781 36.5505 44.89 36.8853 44.5552C37.2201 44.2204 37.4082 43.7663 37.4082 43.2928V12.7152C37.4082 12.7152 37.3784 12.6854 37.3784 12.6676ZM26.0711 6.47231L31.0106 10.9417H26.0711V6.47231ZM3.72408 41.5193V4.27034H22.5241V12.7152C22.5241 13.1887 22.7122 13.6428 23.047 13.9776C23.3819 14.3125 23.836 14.5006 24.3095 14.5006H33.8315V41.5193H3.72408Z" fill="#9BAAC0"/>
            <path d="M28.8501 27.8376H21.4229L18.2152 23.0766C18.7551 22.582 19.1878 21.9819 19.4867 21.3135C19.7856 20.6451 19.9443 19.9225 19.953 19.1904C19.953 16.0541 17.0904 13.501 13.5732 13.501C10.056 13.501 7.1875 16.0541 7.1875 19.1904C7.1875 22.3267 10.0501 24.8738 13.5732 24.8738C14.0639 24.8676 14.5526 24.8097 15.0313 24.7012L18.2687 29.5158V35.4135C18.2703 35.8008 18.4253 36.1716 18.6996 36.4449C18.974 36.7182 19.3455 36.8716 19.7328 36.8716H28.8382C29.2254 36.8716 29.5969 36.7182 29.8713 36.4449C30.1457 36.1716 30.3006 35.8008 30.3022 35.4135V29.3016C30.3022 28.9153 30.1496 28.5448 29.8776 28.2705C29.6056 27.9963 29.2363 27.8407 28.8501 27.8376ZM21.2027 33.9495V30.7656H27.3861V33.9495H21.2027ZM13.5732 16.6909C15.3586 16.6909 16.769 17.8156 16.769 19.1963C16.769 20.577 15.3348 21.6959 13.5732 21.6959C11.8116 21.6959 10.3714 20.5711 10.3714 19.1963C10.3714 17.8216 11.8057 16.673 13.5732 16.673V16.6909Z" fill="#9BAAC0"/>
          </svg>