<svg width="37" height="39" viewBox="0 0 37 39" fill="none" xmlns="http://www.w3.org/2000/svg">
<path d="M18.3936 0C28.5521 0 36.7871 8.70672 36.7871 19.447C36.7871 30.1873 28.5521 38.894 18.3936 38.894C8.23508 38.894 0 30.1873 0 19.447C0 8.70672 8.23508 0 18.3936 0Z" fill="#1A3763" fill-opacity="0.8"/>
<path fill-rule="evenodd" clip-rule="evenodd" d="M18.3936 29.1151C24.5898 29.1151 29.2691 24.6058 29.2691 19.4469C29.2691 14.288 24.5898 9.77869 18.3936 9.77869C12.1974 9.77869 7.51807 14.288 7.51807 19.4469C7.51807 24.6058 12.1974 29.1151 18.3936 29.1151ZM18.3936 31.1151C25.5045 31.1151 31.2691 25.8911 31.2691 19.4469C31.2691 13.0027 25.5045 7.77869 18.3936 7.77869C11.2826 7.77869 5.51807 13.0027 5.51807 19.4469C5.51807 25.8911 11.2826 31.1151 18.3936 31.1151Z" fill="white"/>
<path d="M24 20L15 24.3301L15 15.6699L24 20Z" fill="white"/>
</svg>
