<svg width="40" height="40" viewBox="0 0 40 40" fill="none" xmlns="http://www.w3.org/2000/svg">
<path d="M40 20C40 31.0457 31.0457 40 20 40C8.9543 40 0 31.0457 0 20C0 8.9543 8.9543 0 20 0C31.0457 0 40 8.9543 40 20Z" fill="#1A3763"/>
<path fill-rule="evenodd" clip-rule="evenodd" d="M23.1952 17.819C24.1577 18.746 24.2537 20.5144 22.5248 21.8514C20.7966 23.1891 17.7506 23.4932 17.0344 22.0372C16.9471 21.8602 17.0431 21.7771 17.131 21.7167C17.2195 21.6568 18.6326 20.9849 19.0715 19.396C19.5104 17.8064 21.7059 16.385 23.1952 17.819ZM30.6199 10.3771C30.1025 9.85062 29.2569 9.87833 28.7784 10.442C27.9886 11.3715 26.6757 12.8401 24.9085 14.5487C24.4827 14.9675 23.9027 14.7937 23.2162 15.4921C23.2162 15.4921 22.7186 15.9997 22.596 16.1237C22.4734 16.2484 22.5069 16.5041 22.7198 16.5967C22.9321 16.6899 23.4081 16.911 23.8129 17.3228C24.2177 17.7347 24.435 18.219 24.5266 18.435C24.6176 18.6516 24.8689 18.6863 24.9915 18.5616C25.114 18.4369 25.6123 17.9299 25.6123 17.9299C26.2988 17.2315 26.1279 16.6414 26.5396 16.2081C28.2189 14.4101 29.6624 13.0744 30.576 12.2708C31.13 11.784 31.1374 10.9036 30.6199 10.3771ZM13 14H21V12H13C10.2386 12 8 14.2386 8 17V24C8 26.7614 10.2386 29 13 29H25C27.7614 29 30 26.7614 30 24V21H28V24C28 25.6569 26.6569 27 25 27H13C11.3431 27 10 25.6569 10 24V17C10 15.3431 11.3431 14 13 14Z" fill="white"/>
</svg>
