<svg width="40" height="40" viewBox="0 0 40 40" fill="none" xmlns="http://www.w3.org/2000/svg">
<path d="M20 0C31.0457 0 40 8.9543 40 20C40 31.0457 31.0457 40 20 40C8.9543 40 0 31.0457 0 20C0 8.9543 8.9543 0 20 0Z" fill="#1A3763" fill-opacity="0.8"/>
<rect x="24.9303" y="8.4502" width="2.89808" height="25" transform="rotate(30 24.9303 8.4502)" fill="white"/>
<path fill-rule="evenodd" clip-rule="evenodd" d="M23.7906 13.473C22.6497 13.1591 21.3909 12.9719 20.0112 12.9719C13.5952 12.9719 9.76023 17.0599 8.26523 19.0659C7.78423 19.7119 7.77623 20.5979 8.24823 21.2499C9.38445 22.82 11.9201 25.6416 16.0932 26.8052L17.4868 24.3915C16.0405 23.5325 15.0712 21.9548 15.0712 20.1509C15.0712 17.4279 17.2782 15.2209 20.0012 15.2209C20.8789 15.2209 21.7029 15.4504 22.4168 15.8525L23.7906 13.473ZM21.2182 24.9285C23.3518 24.3866 24.9302 22.4529 24.9302 20.1509C24.9302 19.6882 24.8665 19.2404 24.7474 18.8159L27.0443 14.8375C29.3662 16.1782 30.9134 17.9396 31.7402 19.0589C32.2192 19.7069 32.2212 20.5959 31.7442 21.2459C30.2692 23.2559 26.4822 27.3289 20.0112 27.3289C19.9516 27.3289 19.8921 27.3286 19.8329 27.3279L21.2182 24.9285ZM21.5179 17.4095C21.0684 17.1603 20.5513 17.0184 20.0012 17.0184C18.2707 17.0184 16.8687 18.4205 16.8687 20.1509C16.8687 21.2894 17.4764 22.2866 18.3854 22.8351L21.5179 17.4095Z" fill="white"/>
</svg>

