<svg width="41" height="41" viewBox="0 0 41 41" fill="none" xmlns="http://www.w3.org/2000/svg">
<path d="M34.7659 6.48164C42.5764 14.2921 42.5764 26.9554 34.7659 34.7659C26.9554 42.5764 14.2921 42.5764 6.48164 34.7659C-1.32884 26.9554 -1.32884 14.2921 6.48164 6.48164C14.2921 -1.32884 26.9554 -1.32884 34.7659 6.48164Z" fill="#1A3763" fill-opacity="0.8"/>
<path fill-rule="evenodd" clip-rule="evenodd" d="M15 17H27L27 9L15 9L15 17ZM27 19C28.1046 19 29 18.1046 29 17L29 9C29 7.89539 28.1046 7 27 7L15 7C13.8954 7 13 7.89539 13 9L13 17C13 18.1046 13.8954 19 15 19H20V21.5L12 21.5C10.3431 21.5 9 22.8431 9 24.5V27H8C7.44775 27 7 27.3582 7 27.8V30.2C7 30.6418 7.44775 31 8 31H12C12.5522 31 13 30.6418 13 30.2V27.8C13 27.3582 12.5522 27 12 27H11V24.5C11 23.9478 11.4478 23.5 12 23.5L20 23.5V27H19C18.4478 27 18 27.3582 18 27.8V30.2C18 30.6418 18.4478 31 19 31L23 31C23.5522 31 24 30.6418 24 30.2V27.8C24 27.3582 23.5522 27 23 27H22V23.5H30C30.5522 23.5 31 23.9478 31 24.5V27H30C29.4478 27 29 27.3582 29 27.8V30.2C29 30.6418 29.4478 31 30 31H34C34.5522 31 35 30.6418 35 30.2V27.8C35 27.3582 34.5522 27 34 27H33V24.5C33 22.8431 31.6569 21.5 30 21.5H22V19H27Z" fill="white"/>
</svg>
