<svg width="40" height="40" viewBox="0 0 40 40" fill="none" xmlns="http://www.w3.org/2000/svg">
  <path d="M20 0C31.05 0 40 8.954 40 20C40 31.046 31.05 40 20 40C8.95 40 0 31.046 0 20C0 8.954 8.95 0 20 0Z" fill="#1A3763" fill-opacity="0.8"/>
  <path fill-rule="evenodd" clip-rule="evenodd" d="M20.8864 11C20.0364 11 19.3409 11.716 19.3409 12.6V20.2688L18.5682 19.4688C18.2745 19.1688 17.8881 19 17.4785 19H16.25V20.6H17.4785L19.565 22.7656L20.8864 24.1312V22.2V12.6H25.9091V11H20.8864ZM13.5455 18.2C13.5455 16.8744 14.5809 15.8 15.8636 15.8H16.6364V14.2H15.8636C13.7309 14.2 12 15.9912 12 18.2V23C12 25.2088 13.7309 27 15.8636 27H25.1364C27.2691 27 29 25.2088 29 23V18.2C29 15.9912 27.2691 14.2 25.1364 14.2H24.3636V15.8H25.1364C26.4191 15.8 27.4545 16.8744 27.4545 18.2V23C27.4545 24.3256 26.4191 25.4 25.1364 25.4H15.8636C14.5809 25.4 13.5455 24.3256 13.5455 23V18.2Z" fill="white"/>
  <path d="M5.77473 26.0514C5.77739 25.8459 5.98138 25.7038 6.17512 25.7726L11.6888 27.7311C11.9189 27.8128 11.9602 28.1205 11.7599 28.26L6.17037 32.1522C5.97002 32.2918 5.6958 32.1463 5.69896 31.9022L5.77473 26.0514Z" fill="white"/>
  <path d="M21.5 34L19.7149 34.451C15.2857 35.57 10.6634 33.5303 8.50451 29.5043V29.5043" stroke="white" stroke-width="1.5"/>
  <path d="M34.083 16.3956C34.0385 16.5964 33.8099 16.6939 33.6342 16.5871L28.6347 13.5471C28.4261 13.4202 28.4483 13.1106 28.6729 13.0148L34.9377 10.3421C35.1623 10.2463 35.4011 10.4445 35.3483 10.6829L34.083 16.3956Z" fill="white"/>
  <path d="M20 5.00274L22.1379 5.00274C26.7476 5.00274 30.8075 8.03692 32.1133 12.4579V12.4579" stroke="white" stroke-width="1.5"/>
</svg>
