<svg width="28" height="23" viewBox="0 0 28 23" fill="none" xmlns="http://www.w3.org/2000/svg">
  <path d="M27.2149 5.6248V21.3402C27.2149 21.735 27.0576 22.1137 26.7775 22.3929C26.4974 22.6721 26.1175 22.829 25.7214 22.829H1.49346C1.09742 22.8288 0.717646 22.6719 0.437604 22.3927C0.157561 22.1136 0.000162345 21.735 0 21.3402L0 4.46638C0 4.07152 0.157346 3.69284 0.437424 3.41364C0.717502 3.13444 1.09737 2.97758 1.49346 2.97758H13.4417C13.8378 2.97742 14.2176 2.82052 14.4976 2.54135C14.7776 2.26218 14.935 1.88359 14.9352 1.48879C14.9351 1.29326 14.9737 1.09963 15.0487 0.918961C15.1238 0.738296 15.2338 0.574141 15.3725 0.435878C15.5112 0.297615 15.6758 0.187955 15.8571 0.113164C16.0383 0.0383738 16.2325 -8.01265e-05 16.4287 1.25353e-07H25.7221C25.9182 -8.01265e-05 26.1124 0.0383738 26.2937 0.113164C26.4749 0.187955 26.6396 0.297615 26.7783 0.435878C26.917 0.574141 27.027 0.738296 27.102 0.918961C27.177 1.09963 27.2156 1.29326 27.2155 1.48879V5.6248H27.2149Z" fill="#9BAAC0" fill-opacity="0.41"/>
  <path d="M18.9072 5.25293L20.126 1.73438H20.7412L19.1592 6H18.6611L17.082 1.73438H17.6943L18.9072 5.25293ZM22.237 6.05859C21.8073 6.05859 21.4577 5.91797 21.1882 5.63672C20.9186 5.35352 20.7839 4.97559 20.7839 4.50293V4.40332C20.7839 4.08887 20.8434 3.80859 20.9626 3.5625C21.0837 3.31445 21.2516 3.12109 21.4665 2.98242C21.6833 2.8418 21.9177 2.77148 22.1696 2.77148C22.5817 2.77148 22.902 2.90723 23.1305 3.17871C23.3591 3.4502 23.4733 3.83887 23.4733 4.34473V4.57031H21.3259C21.3337 4.88281 21.4245 5.13574 21.5983 5.3291C21.7741 5.52051 21.9968 5.61621 22.2663 5.61621C22.4577 5.61621 22.6198 5.57715 22.7526 5.49902C22.8854 5.4209 23.0016 5.31738 23.1012 5.18848L23.4323 5.44629C23.1667 5.85449 22.7682 6.05859 22.237 6.05859ZM22.1696 3.2168C21.9509 3.2168 21.7673 3.29688 21.6188 3.45703C21.4704 3.61523 21.3786 3.83789 21.3434 4.125H22.9313V4.08398C22.9157 3.80859 22.8415 3.5957 22.7087 3.44531C22.5759 3.29297 22.3962 3.2168 22.1696 3.2168ZM25.4554 3.31641C25.3734 3.30273 25.2845 3.2959 25.1888 3.2959C24.8334 3.2959 24.5921 3.44727 24.4652 3.75V6H23.9232V2.83008H24.4505L24.4593 3.19629C24.6371 2.91309 24.889 2.77148 25.2152 2.77148C25.3207 2.77148 25.4007 2.78516 25.4554 2.8125V3.31641Z" fill="#1A3763" fill-opacity="0.58"/>
</svg>
